# xmcd
#
# Track frame offsets:
# 150
# 13641
# 35798
# 48537
# 68046
# 86964
# 103773
# 120617
# 133616
# 151530
# 167552
# 185994
# 199390
# 221650
# 237294
# 256023
# 272097
# 285168
# 296794
# 311703
#
# Disc length: 4347 seconds
#
#
# Revision: 0
# Processed by: cddbd v1.5.2PL0 Copyright (c) Steve Scherf et al.
# Submitted via: FreeRIP 2.944 
#
DISCID=2d10f914
DTITLE=ALBERTO PLAZA - SOLO EXITOS
DYEAR=1900
DGENRE=Latin
TTITLE0=NO ME QUITES LA ILUSION
TTITLE1=BANDIDO
TTITLE2=SENTENCIA
TTITLE3=AHORA ES MIGUEL
TTITLE4=POLVO DE ESTRLLAS
TTITLE5=NO SEA CRUEL
TTITLE6=YO TE SEGUIRE
TTITLE7=FELICIDAD
TTITLE8=MILAGRO DE ABRIL
TTITLE9=AVENTRERA
TTITLE10=NO TE DEMORES
TTITLE11=VOY A CAMBIAR EL MUNDO
TTITLE12=NO ME CREAS
TTITLE13=SE QUE PIENSAS EN MI
TTITLE14=SI ESTUVIERAS AQUI
TTITLE15=BOLERO EN PARIS
TTITLE16=CONTRA LA NOSTALGIA
TTITLE17=DONDE TE ENCUENTRO
TTITLE18=SERA POR QUE TE ENCUENTRO
TTITLE19=TENGO UN DIA MAS
EXTD=
EXTT0=
EXTT1=
EXTT2=
EXTT3=
EXTT4=
EXTT5=
EXTT6=
EXTT7=
EXTT8=
EXTT9=
EXTT10=
EXTT11=
EXTT12=
EXTT13=
EXTT14=
EXTT15=
EXTT16=
EXTT17=
EXTT18=
EXTT19=
PLAYORDER=
